<?xml version="1.0" encoding="UTF-8"?>
<svg id="Layer_1" data-name="Layer 1" xmlns="http://www.w3.org/2000/svg" viewBox="0 0 1080 1080">
  <defs>
    <style>
      .cls-1 {
        fill: #a6d16b;
      }

      .cls-2 {
        fill: #fff;
      }
    </style>
  </defs>
  <circle class="cls-2" cx="540" cy="540" r="526.73"/>
  <path class="cls-1" d="M320.31,475.62c-23.91,96.65,1.14,177.18,74.7,241.83,75.94,66.74,199.12,67.87,266.75,17.27,9.49-7.1,19.7-13.65,32.08-6.66,11.89,6.71,10.32,18.54,10.3,29.64-.04,32.25-.39,64.5.08,96.74.17,11.5-3.75,17.97-14.62,22.87-185.04,83.37-412.77-7.74-486.84-196.48-56.76-144.62-32.92-277.85,70.93-391.79,86.56-94.97,198.1-131.62,326.05-112.47,154.07,23.05,275.85,141.85,304.93,295.85,2.96,15.64,1.82,31.11,1.39,46.5-2.98,106.75,2.6,213.46.79,320.19-.25,14.43-.41,28.87-.03,43.3.31,11.72-4.03,17.33-16.48,17.17-34.44-.43-68.89-.53-103.32-.06-15.12.21-16.79-8.25-16.76-20.38.24-115.65.24-231.3.16-346.96-.06-91.83-45.23-157.24-124.14-197.7-130.01-66.66-280.41-.66-325.98,141.14Z"/>
</svg>