<svg width="120" height="52" viewBox="0 0 120 52" fill="none" xmlns="http://www.w3.org/2000/svg">
<path d="M108.339 0.0327314C109.335 0.0842196 109.355 0.0839753 109.366 0.980323C109.382 2.32829 109.364 3.67664 109.364 5.02482C109.364 5.48069 109.21 5.64438 108.695 5.62187C106.528 5.52715 104.648 6.18476 103.143 7.82926C101.221 9.93029 99.2584 11.9945 97.3148 14.076C97.2426 14.1533 97.1868 14.2459 97.0796 14.3902C98.2231 15.5919 99.3578 16.785 100.493 17.9774C101.438 18.9694 102.405 19.9408 103.324 20.9566C104.787 22.5745 106.659 23.2662 108.766 23.4011C111.03 23.546 113.061 22.8865 114.835 21.4668C115.169 21.1989 115.396 21.1853 115.707 21.528C116.599 22.5096 117.515 23.4704 118.452 24.4089C118.819 24.7764 118.824 25.0175 118.417 25.3475C115.113 28.0239 111.369 29.12 107.152 28.5084C104.985 28.1943 102.985 27.4169 101.219 26.1223C100.022 25.2452 99.1308 24.037 98.0947 22.9855C96.6603 21.53 95.2743 20.0268 93.8654 18.546C93.7625 18.4379 93.6628 18.3153 93.4107 18.2887C92.5893 19.1989 91.7424 20.1542 90.877 21.0926C89.4046 22.6893 88.1336 24.4924 86.3793 25.8041C81.6913 29.3094 76.6151 29.9544 71.267 27.5442C67.2421 25.7304 64.7307 22.5368 63.4524 18.3393C63.3574 18.0276 63.2415 17.7222 63.1278 17.4166C63.0988 17.3386 63.0412 17.2712 62.9056 17.0511C62.6659 17.3392 62.4684 17.5903 62.2568 17.8288C60.4814 19.8291 58.6707 21.7991 56.9325 23.8311C52.2192 29.3413 43.8929 30.4969 37.7492 26.1882C37.5934 26.079 37.4556 25.9232 37.2191 25.9402C37.022 26.1525 37.0935 26.4254 37.095 26.6733C37.1099 29.0456 37.097 31.419 37.1723 33.7895C37.2047 34.8102 37.2232 35.8321 37.2628 36.8529C37.2757 37.185 37.2476 37.4854 36.994 37.7554C35.3261 39.5305 33.6711 41.3177 32.0103 43.0995C31.9373 43.1778 31.8518 43.2506 31.7017 43.207C31.4982 43.0352 31.5847 42.7788 31.5846 42.5552C31.58 32.4772 31.5622 22.3991 31.5967 12.3213C31.6034 10.3568 32.4268 8.58605 33.4307 6.9445C38.4471 -1.25824 49.8756 -2.3792 56.404 4.67661C57.5192 5.88185 58.4178 7.23959 59.0299 8.7756C59.1315 9.03057 59.2035 9.25509 58.9835 9.49571C57.7808 10.8114 56.5869 12.1352 55.386 13.4527C55.3324 13.5114 55.2408 13.5355 55.1746 13.5715C54.8511 13.4129 54.9357 13.1041 54.8885 12.87C54.0921 8.91739 51.2501 6.1679 47.2905 5.53721C43.1518 4.87802 38.8994 7.45622 37.5627 11.4351C35.4878 17.6108 40.2137 23.8111 46.7099 23.3712C49.233 23.2004 51.3766 22.087 52.9508 20.1067C54.5389 18.1088 56.3413 16.3147 58.0451 14.4279C61.0326 11.1196 64.072 7.85827 67.0834 4.57147C69.854 1.54738 73.3065 0.0954352 77.3825 0.00369142C80.3515 -0.0631369 83.0411 0.779647 85.5295 2.35028C86.1971 2.77163 86.2074 2.80981 85.6702 3.40486C84.7231 4.45394 83.7557 5.48472 82.8122 6.53697C82.5128 6.87085 82.2467 6.89775 81.8491 6.68059C77.1745 4.12728 71.8658 5.81746 69.5628 10.5782C69.4966 10.7151 69.4323 10.8539 69.3808 10.9967C69.1632 11.5997 69.25 11.7481 69.8947 11.7533C71.4169 11.7654 72.9393 11.7552 74.4617 11.7523C75.3427 11.7506 75.3456 11.7491 75.3483 12.6023C75.3522 13.8212 75.3332 15.0405 75.3603 16.2589C75.3734 16.8429 75.1706 17.0718 74.5663 17.0591C73.0447 17.0272 71.5219 17.0467 69.9995 17.0502C69.7669 17.0508 69.5227 17.0136 69.2527 17.194C69.5045 18.3504 70.1346 19.3103 70.8954 20.1642C73.8768 23.5107 78.2932 24.2146 82.2025 22.025C83.2106 21.4604 83.9896 20.6414 84.7508 19.8076C86.261 18.1532 87.7246 16.4561 89.2419 14.8085C89.6475 14.368 89.3908 14.1189 89.1272 13.8269C87.7865 12.3418 86.4426 10.8595 85.0961 9.37971C84.501 8.72576 84.5024 8.71594 85.1108 8.0635C85.9708 7.14116 86.8166 6.20546 87.6792 5.28562C88.193 4.73779 88.2687 4.75831 88.7805 5.33917C90.1749 6.92165 91.5771 8.49718 92.9779 10.0739C93.048 10.1529 93.1345 10.2173 93.2581 10.3288C94.096 9.64516 94.7341 8.79186 95.4564 8.02603C96.933 6.46053 98.3187 4.80515 99.8475 3.29393C101.719 1.44398 104.064 0.498348 106.655 0.154679C107.192 0.0834543 107.737 0.0714315 108.339 0.0327314Z" fill="black"/>
<path d="M5.77638 11.9328C4.84027 15.7165 5.82111 18.8694 8.70094 21.4004C11.6741 24.0133 16.4965 24.0574 19.1442 22.0767C19.5158 21.7987 19.9153 21.5425 20.4003 21.8161C20.8659 22.0789 20.8042 22.5421 20.8037 22.9764C20.8023 24.239 20.7885 25.5017 20.807 26.7639C20.8137 27.2141 20.6602 27.4674 20.2345 27.6592C12.9903 30.9232 4.07485 27.3562 1.17474 19.9671C-1.04746 14.3052 -0.114246 9.08945 3.95149 4.62851C7.34011 0.910526 11.7072 -0.524181 16.7163 0.225296C22.7482 1.12781 27.5157 5.7785 28.6542 11.8076C28.7699 12.4199 28.7256 13.0256 28.7088 13.6281C28.592 17.8072 28.8105 21.9848 28.7398 26.1633C28.7302 26.7282 28.7238 27.2937 28.7388 27.8584C28.751 28.3171 28.5809 28.5369 28.0937 28.5307C26.7455 28.5137 25.3967 28.5099 24.0486 28.5284C23.4567 28.5365 23.3913 28.2056 23.3923 27.7305C23.4016 23.2028 23.4016 18.675 23.3987 14.1473C23.3964 10.5523 21.6278 7.99141 18.5385 6.40735C13.4486 3.79751 7.56043 6.38146 5.77638 11.9328Z" fill="black"/>
<path d="M108.339 0.0327314C109.335 0.0842196 109.355 0.0839753 109.366 0.980323C109.382 2.32829 109.364 3.67664 109.364 5.02482C109.364 5.48069 109.21 5.64438 108.695 5.62187C106.528 5.52715 104.648 6.18476 103.143 7.82926C101.221 9.93029 99.2584 11.9945 97.3148 14.076C97.2426 14.1533 97.1868 14.2459 97.0796 14.3902C98.2231 15.5919 99.3578 16.785 100.493 17.9774C101.438 18.9694 102.405 19.9408 103.324 20.9566C104.787 22.5745 106.659 23.2662 108.766 23.4011C111.03 23.546 113.061 22.8865 114.835 21.4668C115.169 21.1989 115.396 21.1853 115.707 21.528C116.599 22.5096 117.515 23.4704 118.452 24.4089C118.819 24.7764 118.824 25.0175 118.417 25.3475C115.113 28.0239 111.369 29.12 107.152 28.5084C104.985 28.1943 102.985 27.4169 101.219 26.1223C100.022 25.2452 99.1308 24.037 98.0947 22.9855C96.6603 21.53 95.2743 20.0268 93.8654 18.546C93.7625 18.4379 93.6628 18.3153 93.4107 18.2887C92.5893 19.1989 91.7424 20.1542 90.877 21.0926C89.4046 22.6893 88.1336 24.4924 86.3793 25.8041C81.6913 29.3094 76.6151 29.9544 71.267 27.5442C67.2421 25.7304 64.7307 22.5368 63.4524 18.3393C63.3574 18.0276 63.2415 17.7222 63.1278 17.4166C63.0988 17.3386 63.0412 17.2712 62.9056 17.0511C62.6659 17.3392 62.4684 17.5903 62.2568 17.8288C60.4814 19.8291 58.6707 21.7991 56.9325 23.8311C52.2192 29.3413 43.8929 30.4969 37.7492 26.1882C37.5934 26.079 37.4556 25.9232 37.2191 25.9402C37.022 26.1525 37.0935 26.4254 37.095 26.6733C37.1099 29.0456 37.097 31.419 37.1723 33.7895C37.2047 34.8102 37.2232 35.8321 37.2628 36.8529C37.2757 37.185 37.2476 37.4854 36.994 37.7554C35.3261 39.5305 33.6711 41.3177 32.0103 43.0995C31.9373 43.1778 31.8518 43.2506 31.7017 43.207C31.4982 43.0352 31.5847 42.7788 31.5846 42.5552C31.58 32.4772 31.5622 22.3991 31.5967 12.3213C31.6034 10.3568 32.4268 8.58605 33.4307 6.9445C38.4471 -1.25824 49.8756 -2.3792 56.404 4.67661C57.5192 5.88185 58.4178 7.23959 59.0299 8.7756C59.1315 9.03057 59.2035 9.25509 58.9835 9.49571C57.7808 10.8114 56.5869 12.1352 55.386 13.4527C55.3324 13.5114 55.2408 13.5355 55.1746 13.5715C54.8511 13.4129 54.9357 13.1041 54.8885 12.87C54.0921 8.91739 51.2501 6.1679 47.2905 5.53721C43.1518 4.87802 38.8994 7.45622 37.5627 11.4351C35.4878 17.6108 40.2137 23.8111 46.7099 23.3712C49.233 23.2004 51.3766 22.087 52.9508 20.1067C54.5389 18.1088 56.3413 16.3147 58.0451 14.4279C61.0326 11.1196 64.072 7.85827 67.0834 4.57147C69.854 1.54738 73.3065 0.0954352 77.3825 0.00369142C80.3515 -0.0631369 83.0411 0.779647 85.5295 2.35028C86.1971 2.77163 86.2074 2.80981 85.6702 3.40486C84.7231 4.45394 83.7557 5.48472 82.8122 6.53697C82.5128 6.87085 82.2467 6.89775 81.8491 6.68059C77.1745 4.12728 71.8658 5.81746 69.5628 10.5782C69.4966 10.7151 69.4323 10.8539 69.3808 10.9967C69.1632 11.5997 69.25 11.7481 69.8947 11.7533C71.4169 11.7654 72.9393 11.7552 74.4617 11.7523C75.3427 11.7506 75.3456 11.7491 75.3483 12.6023C75.3522 13.8212 75.3332 15.0405 75.3603 16.2589C75.3734 16.8429 75.1706 17.0718 74.5663 17.0591C73.0447 17.0272 71.5219 17.0467 69.9995 17.0502C69.7669 17.0508 69.5227 17.0136 69.2527 17.194C69.5045 18.3504 70.1346 19.3103 70.8954 20.1642C73.8768 23.5107 78.2932 24.2146 82.2025 22.025C83.2106 21.4604 83.9896 20.6414 84.7508 19.8076C86.261 18.1532 87.7246 16.4561 89.2419 14.8085C89.6475 14.368 89.3908 14.1189 89.1272 13.8269C87.7865 12.3418 86.4426 10.8595 85.0961 9.37971C84.501 8.72576 84.5024 8.71594 85.1108 8.0635C85.9708 7.14116 86.8166 6.20546 87.6792 5.28562C88.193 4.73779 88.2687 4.75831 88.7805 5.33917C90.1749 6.92165 91.5771 8.49718 92.9779 10.0739C93.048 10.1529 93.1345 10.2173 93.2581 10.3288C94.096 9.64516 94.7341 8.79186 95.4564 8.02603C96.933 6.46053 98.3187 4.80515 99.8475 3.29393C101.719 1.44398 104.064 0.498348 106.655 0.154679C107.192 0.0834543 107.737 0.0714315 108.339 0.0327314Z" fill="#A2E369"/>
<path d="M5.77638 11.9328C4.84027 15.7165 5.82111 18.8694 8.70094 21.4004C11.6741 24.0133 16.4965 24.0574 19.1442 22.0767C19.5158 21.7987 19.9153 21.5425 20.4003 21.8161C20.8659 22.0789 20.8042 22.5421 20.8037 22.9764C20.8023 24.239 20.7885 25.5017 20.807 26.7639C20.8137 27.2141 20.6602 27.4674 20.2345 27.6592C12.9903 30.9232 4.07485 27.3562 1.17474 19.9671C-1.04746 14.3052 -0.114246 9.08945 3.95149 4.62851C7.34011 0.910526 11.7072 -0.524181 16.7163 0.225296C22.7482 1.12781 27.5157 5.7785 28.6542 11.8076C28.7699 12.4199 28.7256 13.0256 28.7088 13.6281C28.592 17.8072 28.8105 21.9848 28.7398 26.1633C28.7302 26.7282 28.7238 27.2937 28.7388 27.8584C28.751 28.3171 28.5809 28.5369 28.0937 28.5307C26.7455 28.5137 25.3967 28.5099 24.0486 28.5284C23.4567 28.5365 23.3913 28.2056 23.3923 27.7305C23.4016 23.2028 23.4016 18.675 23.3987 14.1473C23.3964 10.5523 21.6278 7.99141 18.5385 6.40735C13.4486 3.79751 7.56043 6.38146 5.77638 11.9328Z" fill="#A2E369"/>
<path d="M97.8407 51.6359C95.3804 51.0431 93.586 49.6706 92.561 47.4058C91.257 44.5246 91.8934 40.6214 94.5367 38.3853C97.4118 35.9531 102.199 35.9893 104.948 38.7078C106.014 39.7613 106.561 41.113 106.95 42.532C107.037 42.8473 106.903 43.0195 106.555 43.0407C105.298 43.1172 104.042 43.2016 102.786 43.2976C102.415 43.3259 102.229 43.1576 102.11 42.8292C101.564 41.3211 100.232 40.9237 99.3433 40.9844C97.6606 41.0995 96.7976 42.3482 96.5372 43.4518C96.0501 45.5163 97.4619 47.2069 99.1336 47.3684C100.565 47.5068 101.872 46.6639 102.237 45.2655C102.488 44.3033 102.488 44.2946 103.483 44.3039C104.482 44.3133 105.482 44.3444 106.481 44.3616C106.892 44.3686 107.052 44.5172 106.985 44.9695C106.712 46.806 106.048 48.4771 104.737 49.7949C103.675 50.8626 102.328 51.4669 100.814 51.6772C99.8351 51.8132 98.866 51.7431 97.8407 51.6359Z" fill="black"/>
<path d="M89.0384 41.2119C88.3692 41.2328 87.7609 41.1573 87.1599 41.3292C86.8386 41.421 86.6467 41.5992 86.6592 41.9159C86.6726 42.2554 86.935 42.3689 87.2417 42.4161C88.0209 42.5361 88.8046 42.4802 89.5861 42.4831C90.027 42.4846 90.2162 42.6445 90.1937 43.1044C90.1587 43.8197 90.1434 44.538 90.1667 45.2535C90.1819 45.7196 89.9746 45.8808 89.5511 45.8791C88.9205 45.8765 88.2896 45.8696 87.6595 45.8881C87.38 45.8962 87.101 45.9549 86.824 46.0035C86.5205 46.0567 86.381 46.2671 86.3687 46.5569C86.355 46.8794 86.5642 47.0053 86.8476 47.0737C87.5783 47.2503 88.32 47.1694 89.0569 47.1783C90.6056 47.1969 90.4851 47.0433 90.4857 48.6379C90.486 49.3562 90.4822 50.0744 90.4861 50.7926C90.4882 51.1808 90.3464 51.4189 89.917 51.4067C88.463 51.3654 87.0046 51.5204 85.5547 51.2911C83.473 50.962 82.1381 49.4697 82.108 47.3511C82.0773 45.1968 82.0703 43.0414 82.1002 40.8871C82.1307 38.6871 83.7406 37.065 85.9419 36.9946C87.2453 36.9528 88.551 36.9844 89.8553 36.9593C90.3435 36.95 90.508 37.1627 90.4993 37.6257C90.4824 38.5177 90.4985 39.4103 90.4937 40.3026C90.4891 41.1714 90.4521 41.2036 89.5587 41.211C89.4065 41.2123 89.2543 41.2116 89.0384 41.2119Z" fill="black"/>
<path d="M72.8048 41.2183C72.0505 41.2131 71.3551 41.2004 70.6604 41.2142C70.2057 41.2231 69.9705 41.0564 69.9777 40.5718C69.9925 39.5719 69.9932 38.5717 69.986 37.5717C69.9829 37.1288 70.1727 36.9675 70.6182 36.969C73.8547 36.9801 77.0913 36.9774 80.3278 36.9658C80.7709 36.9642 80.9657 37.1358 80.9621 37.5766C80.9542 38.5766 80.9534 39.5768 80.9615 40.5767C80.965 41.013 80.7748 41.2141 80.3342 41.2063C79.7044 41.1952 79.0725 41.2345 78.445 41.1956C77.8692 41.16 77.6913 41.3843 77.6954 41.9482C77.7159 44.7744 77.7047 47.6007 77.7036 50.427C77.7032 51.3923 77.6912 51.405 76.7159 51.407C75.8036 51.4088 74.8909 51.3896 73.9791 51.4106C73.4741 51.4222 73.3093 51.2376 73.3098 50.7202C73.3124 47.8077 73.2823 44.8951 73.2528 41.9826C73.2497 41.6817 73.3571 41.2879 72.8048 41.2183Z" fill="black"/>
<path d="M111.487 51.4049C110.814 51.4032 110.206 51.3919 109.597 51.4032C109.167 51.4112 108.97 51.251 108.971 50.7912C108.979 46.3981 108.976 42.0049 108.967 37.6118C108.966 37.1878 109.088 36.9641 109.557 36.9712C110.622 36.9874 111.687 36.9841 112.751 36.9662C113.217 36.9584 113.351 37.1815 113.347 37.6072C113.335 38.8684 113.357 40.1301 113.337 41.3912C113.329 41.8658 113.438 42.1516 113.982 42.1013C114.359 42.0666 114.536 42.2436 114.529 42.6391C114.515 43.5523 114.514 44.466 114.529 45.3792C114.535 45.8036 114.353 45.987 113.941 45.9402C113.421 45.881 113.327 46.1674 113.333 46.6089C113.35 47.9136 113.341 49.2186 113.341 50.5235C113.341 51.38 113.324 51.3964 112.465 51.4038C112.161 51.4064 111.857 51.4046 111.487 51.4049Z" fill="black"/>
<path d="M117.881 51.4141C117.142 51.4128 116.468 51.395 115.794 51.4157C115.331 51.4299 115.119 51.2633 115.12 50.7779C115.126 46.3818 115.124 41.9856 115.114 37.5895C115.113 37.1478 115.275 36.9608 115.728 36.9678C116.815 36.9846 117.902 36.9836 118.989 36.9659C119.453 36.9583 119.595 37.1788 119.595 37.6031C119.59 41.9992 119.589 46.3954 119.596 50.7915C119.597 51.2288 119.448 51.4413 118.99 51.4149C118.643 51.395 118.294 51.413 117.881 51.4141Z" fill="black"/>
</svg>
